<svg width="100" height="100" viewBox="0 0 100 100" fill="none" xmlns="http://www.w3.org/2000/svg">
  <!-- Mountains in background -->
  <path d="M20 50L40 20L60 45L80 15V60H20V50Z" fill="#0c4a6e" fill-opacity="0.2"/>
  <path d="M20 52L40 22L55 42L75 12L85 25" stroke="#0c4a6e" stroke-width="3" stroke-linecap="round" stroke-linejoin="round"/>
  
  <!-- Main A-Frame House -->
  <path d="M35 60L50 35L65 60H35Z" fill="white"/>
  <path d="M32 62L50 32L68 62" stroke="#0284c7" stroke-width="4" stroke-linecap="round" stroke-linejoin="round"/>
  <path d="M42 62V50H58V62" stroke="#0284c7" stroke-width="3" stroke-linecap="round"/>
  <rect x="47" y="55" width="6" height="7" rx="1" fill="#0284c7"/>

  <!-- Wave -->
  <path d="M15 65C30 55 50 75 85 65" stroke="#0ea5e9" stroke-width="4" stroke-linecap="round"/>
  <path d="M10 72C30 62 50 82 90 70" stroke="#0284c7" stroke-width="5" stroke-linecap="round"/>
</svg>
