<svg width="32" height="32" viewBox="0 0 100 100" fill="none" xmlns="http://www.w3.org/2000/svg">
  <rect width="100" height="100" rx="20" fill="#0284c7"/>
  <!-- Mountains -->
  <path d="M20 55L40 25L55 45L75 15L85 30V65H20V55Z" fill="white" fill-opacity="0.2"/>
  <path d="M20 57L40 27L55 47L75 17L85 32" stroke="white" stroke-width="3" stroke-linecap="round" stroke-linejoin="round"/>
  
  <!-- A-Frame House -->
  <path d="M32 65L50 35L68 65H32Z" fill="white" fill-opacity="0.1"/>
  <path d="M32 65L50 35L68 65" stroke="white" stroke-width="5" stroke-linecap="round" stroke-linejoin="round"/>
  <rect x="47" y="55" width="6" height="7" rx="1" fill="white"/>

  <!-- Waves -->
  <path d="M15 70C30 60 50 80 85 70" stroke="white" stroke-width="4" stroke-linecap="round" opacity="0.4"/>
  <path d="M10 78C30 68 50 88 90 75" stroke="white" stroke-width="6" stroke-linecap="round"/>
</svg>
